<?xml version="1.0"?><svg xmlns="http://www.w3.org/2000/svg" width="360" height="360"><rect x="0" y="0" width="100%" height="100%" fill="rgb(116, 185, 255)" /><circle cx="0" cy="0" r="52.5" fill="none" stroke="#222" style="opacity:0.15;stroke-width:15px;" /><circle cx="360" cy="0" r="52.5" fill="none" stroke="#222" style="opacity:0.15;stroke-width:15px;" /><circle cx="0" cy="360" r="52.5" fill="none" stroke="#222" style="opacity:0.15;stroke-width:15px;" /><circle cx="360" cy="360" r="52.5" fill="none" stroke="#222" style="opacity:0.15;stroke-width:15px;" /><circle cx="60" cy="0" r="52.5" fill="none" stroke="#222" style="opacity:0.046;stroke-width:15px;" /><circle cx="60" cy="360" r="52.5" fill="none" stroke="#222" style="opacity:0.046;stroke-width:15px;" /><circle cx="120" cy="0" r="52.5" fill="none" stroke="#222" style="opacity:0.13266666666667;stroke-width:15px;" /><circle cx="120" cy="360" r="52.5" fill="none" stroke="#222" style="opacity:0.13266666666667;stroke-width:15px;" /><circle cx="180" cy="0" r="52.5" fill="none" stroke="#222" style="opacity:0.028666666666667;stroke-width:15px;" /><circle cx="180" cy="360" r="52.5" fill="none" stroke="#222" style="opacity:0.028666666666667;stroke-width:15px;" /><circle cx="240" cy="0" r="52.5" fill="none" stroke="#ddd" style="opacity:0.089333333333333;stroke-width:15px;" /><circle cx="240" cy="360" r="52.5" fill="none" stroke="#ddd" style="opacity:0.089333333333333;stroke-width:15px;" /><circle cx="300" cy="0" r="52.5" fill="none" stroke="#ddd" style="opacity:0.054666666666667;stroke-width:15px;" /><circle cx="300" cy="360" r="52.5" fill="none" stroke="#ddd" style="opacity:0.054666666666667;stroke-width:15px;" /><circle cx="0" cy="60" r="52.5" fill="none" stroke="#222" style="opacity:0.098;stroke-width:15px;" /><circle cx="360" cy="60" r="52.5" fill="none" stroke="#222" style="opacity:0.098;stroke-width:15px;" /><circle cx="60" cy="60" r="52.5" fill="none" stroke="#222" style="opacity:0.15;stroke-width:15px;" /><circle cx="120" cy="60" r="52.5" fill="none" stroke="#ddd" style="opacity:0.072;stroke-width:15px;" /><circle cx="180" cy="60" r="52.5" fill="none" stroke="#ddd" style="opacity:0.14133333333333;stroke-width:15px;" /><circle cx="240" cy="60" r="52.5" fill="none" stroke="#222" style="opacity:0.063333333333333;stroke-width:15px;" /><circle cx="300" cy="60" r="52.5" fill="none" stroke="#ddd" style="opacity:0.14133333333333;stroke-width:15px;" /><circle cx="0" cy="120" r="52.5" fill="none" stroke="#ddd" style="opacity:0.072;stroke-width:15px;" /><circle cx="360" cy="120" r="52.5" fill="none" stroke="#ddd" style="opacity:0.072;stroke-width:15px;" /><circle cx="60" cy="120" r="52.5" fill="none" stroke="#222" style="opacity:0.046;stroke-width:15px;" /><circle cx="120" cy="120" r="52.5" fill="none" stroke="#222" style="opacity:0.080666666666667;stroke-width:15px;" /><circle cx="180" cy="120" r="52.5" fill="none" stroke="#ddd" style="opacity:0.14133333333333;stroke-width:15px;" /><circle cx="240" cy="120" r="52.5" fill="none" stroke="#222" style="opacity:0.15;stroke-width:15px;" /><circle cx="300" cy="120" r="52.5" fill="none" stroke="#222" style="opacity:0.046;stroke-width:15px;" /><circle cx="0" cy="180" r="52.5" fill="none" stroke="#ddd" style="opacity:0.037333333333333;stroke-width:15px;" /><circle cx="360" cy="180" r="52.5" fill="none" stroke="#ddd" style="opacity:0.037333333333333;stroke-width:15px;" /><circle cx="60" cy="180" r="52.5" fill="none" stroke="#222" style="opacity:0.046;stroke-width:15px;" /><circle cx="120" cy="180" r="52.5" fill="none" stroke="#ddd" style="opacity:0.072;stroke-width:15px;" /><circle cx="180" cy="180" r="52.5" fill="none" stroke="#222" style="opacity:0.13266666666667;stroke-width:15px;" /><circle cx="240" cy="180" r="52.5" fill="none" stroke="#222" style="opacity:0.080666666666667;stroke-width:15px;" /><circle cx="300" cy="180" r="52.5" fill="none" stroke="#ddd" style="opacity:0.037333333333333;stroke-width:15px;" /><circle cx="0" cy="240" r="52.5" fill="none" stroke="#222" style="opacity:0.028666666666667;stroke-width:15px;" /><circle cx="360" cy="240" r="52.5" fill="none" stroke="#222" style="opacity:0.028666666666667;stroke-width:15px;" /><circle cx="60" cy="240" r="52.5" fill="none" stroke="#222" style="opacity:0.028666666666667;stroke-width:15px;" /><circle cx="120" cy="240" r="52.5" fill="none" stroke="#ddd" style="opacity:0.037333333333333;stroke-width:15px;" /><circle cx="180" cy="240" r="52.5" fill="none" stroke="#ddd" style="opacity:0.089333333333333;stroke-width:15px;" /><circle cx="240" cy="240" r="52.5" fill="none" stroke="#222" style="opacity:0.063333333333333;stroke-width:15px;" /><circle cx="300" cy="240" r="52.5" fill="none" stroke="#ddd" style="opacity:0.089333333333333;stroke-width:15px;" /><circle cx="0" cy="300" r="52.5" fill="none" stroke="#ddd" style="opacity:0.02;stroke-width:15px;" /><circle cx="360" cy="300" r="52.5" fill="none" stroke="#ddd" style="opacity:0.02;stroke-width:15px;" /><circle cx="60" cy="300" r="52.5" fill="none" stroke="#ddd" style="opacity:0.089333333333333;stroke-width:15px;" /><circle cx="120" cy="300" r="52.5" fill="none" stroke="#222" style="opacity:0.063333333333333;stroke-width:15px;" /><circle cx="180" cy="300" r="52.5" fill="none" stroke="#222" style="opacity:0.046;stroke-width:15px;" /><circle cx="240" cy="300" r="52.5" fill="none" stroke="#222" style="opacity:0.080666666666667;stroke-width:15px;" /><circle cx="300" cy="300" r="52.5" fill="none" stroke="#ddd" style="opacity:0.054666666666667;stroke-width:15px;" /></svg>