<?xml version="1.0"?><svg xmlns="http://www.w3.org/2000/svg" width="348" height="201"><rect x="0" y="0" width="100%" height="100%" fill="rgb(253, 121, 168)" /><polyline points="0, 0, 58.023702053557, 33.5, 0, 67, 0, 0" fill="#ddd" fill-opacity="0.124" stroke="#000" stroke-opacity="0.02" transform="translate(0, -33.5) rotate(180, 29.011851026779, 33.5)" /><polyline points="0, 0, 58.023702053557, 33.5, 0, 67, 0, 0" fill="#ddd" fill-opacity="0.124" stroke="#000" stroke-opacity="0.02" transform="translate(0, 167.5) rotate(180, 29.011851026779, 33.5)" /><polyline points="0, 0, 58.023702053557, 33.5, 0, 67, 0, 0" fill="#ddd" fill-opacity="0.072" stroke="#000" stroke-opacity="0.02" transform="translate(58.023702053557, -33.5) rotate(0, 29.011851026779, 33.5)" /><polyline points="0, 0, 58.023702053557, 33.5, 0, 67, 0, 0" fill="#ddd" fill-opacity="0.072" stroke="#000" stroke-opacity="0.02" transform="translate(58.023702053557, 167.5) rotate(0, 29.011851026779, 33.5)" /><polyline points="0, 0, 58.023702053557, 33.5, 0, 67, 0, 0" fill="#ddd" fill-opacity="0.124" stroke="#000" stroke-opacity="0.02" transform="translate(116.04740410711, -33.5) rotate(180, 29.011851026779, 33.5)" /><polyline points="0, 0, 58.023702053557, 33.5, 0, 67, 0, 0" fill="#ddd" fill-opacity="0.124" stroke="#000" stroke-opacity="0.02" transform="translate(116.04740410711, 167.5) rotate(180, 29.011851026779, 33.5)" /><polyline points="0, 0, 58.023702053557, 33.5, 0, 67, 0, 0" fill="#222" fill-opacity="0.080666666666667" stroke="#000" stroke-opacity="0.02" transform="translate(174.07110616067, -33.5) rotate(0, 29.011851026779, 33.5)" /><polyline points="0, 0, 58.023702053557, 33.5, 0, 67, 0, 0" fill="#222" fill-opacity="0.080666666666667" stroke="#000" stroke-opacity="0.02" transform="translate(174.07110616067, 167.5) rotate(0, 29.011851026779, 33.5)" /><polyline points="0, 0, 58.023702053557, 33.5, 0, 67, 0, 0" fill="#222" fill-opacity="0.028666666666667" stroke="#000" stroke-opacity="0.02" transform="translate(232.09480821423, -33.5) rotate(180, 29.011851026779, 33.5)" /><polyline points="0, 0, 58.023702053557, 33.5, 0, 67, 0, 0" fill="#222" fill-opacity="0.028666666666667" stroke="#000" stroke-opacity="0.02" transform="translate(232.09480821423, 167.5) rotate(180, 29.011851026779, 33.5)" /><polyline points="0, 0, 58.023702053557, 33.5, 0, 67, 0, 0" fill="#ddd" fill-opacity="0.14133333333333" stroke="#000" stroke-opacity="0.02" transform="translate(290.11851026779, -33.5) rotate(0, 29.011851026779, 33.5)" /><polyline points="0, 0, 58.023702053557, 33.5, 0, 67, 0, 0" fill="#ddd" fill-opacity="0.14133333333333" stroke="#000" stroke-opacity="0.02" transform="translate(290.11851026779, 167.5) rotate(0, 29.011851026779, 33.5)" /><polyline points="0, 0, 58.023702053557, 33.5, 0, 67, 0, 0" fill="#222" fill-opacity="0.098" stroke="#000" stroke-opacity="0.02" transform="translate(0, 0) rotate(0, 29.011851026779, 33.5)" /><polyline points="0, 0, 58.023702053557, 33.5, 0, 67, 0, 0" fill="#222" fill-opacity="0.15" stroke="#000" stroke-opacity="0.02" transform="translate(58.023702053557, 0) rotate(180, 29.011851026779, 33.5)" /><polyline points="0, 0, 58.023702053557, 33.5, 0, 67, 0, 0" fill="#222" fill-opacity="0.080666666666667" stroke="#000" stroke-opacity="0.02" transform="translate(116.04740410711, 0) rotate(0, 29.011851026779, 33.5)" /><polyline points="0, 0, 58.023702053557, 33.5, 0, 67, 0, 0" fill="#222" fill-opacity="0.028666666666667" stroke="#000" stroke-opacity="0.02" transform="translate(174.07110616067, 0) rotate(180, 29.011851026779, 33.5)" /><polyline points="0, 0, 58.023702053557, 33.5, 0, 67, 0, 0" fill="#ddd" fill-opacity="0.124" stroke="#000" stroke-opacity="0.02" transform="translate(232.09480821423, 0) rotate(0, 29.011851026779, 33.5)" /><polyline points="0, 0, 58.023702053557, 33.5, 0, 67, 0, 0" fill="#ddd" fill-opacity="0.072" stroke="#000" stroke-opacity="0.02" transform="translate(290.11851026779, 0) rotate(180, 29.011851026779, 33.5)" /><polyline points="0, 0, 58.023702053557, 33.5, 0, 67, 0, 0" fill="#222" fill-opacity="0.098" stroke="#000" stroke-opacity="0.02" transform="translate(0, 33.5) rotate(180, 29.011851026779, 33.5)" /><polyline points="0, 0, 58.023702053557, 33.5, 0, 67, 0, 0" fill="#222" fill-opacity="0.11533333333333" stroke="#000" stroke-opacity="0.02" transform="translate(58.023702053557, 33.5) rotate(0, 29.011851026779, 33.5)" /><polyline points="0, 0, 58.023702053557, 33.5, 0, 67, 0, 0" fill="#ddd" fill-opacity="0.054666666666667" stroke="#000" stroke-opacity="0.02" transform="translate(116.04740410711, 33.5) rotate(180, 29.011851026779, 33.5)" /><polyline points="0, 0, 58.023702053557, 33.5, 0, 67, 0, 0" fill="#222" fill-opacity="0.046" stroke="#000" stroke-opacity="0.02" transform="translate(174.07110616067, 33.5) rotate(0, 29.011851026779, 33.5)" /><polyline points="0, 0, 58.023702053557, 33.5, 0, 67, 0, 0" fill="#ddd" fill-opacity="0.14133333333333" stroke="#000" stroke-opacity="0.02" transform="translate(232.09480821423, 33.5) rotate(180, 29.011851026779, 33.5)" /><polyline points="0, 0, 58.023702053557, 33.5, 0, 67, 0, 0" fill="#222" fill-opacity="0.028666666666667" stroke="#000" stroke-opacity="0.02" transform="translate(290.11851026779, 33.5) rotate(0, 29.011851026779, 33.5)" /><polyline points="0, 0, 58.023702053557, 33.5, 0, 67, 0, 0" fill="#ddd" fill-opacity="0.10666666666667" stroke="#000" stroke-opacity="0.02" transform="translate(0, 67) rotate(0, 29.011851026779, 33.5)" /><polyline points="0, 0, 58.023702053557, 33.5, 0, 67, 0, 0" fill="#222" fill-opacity="0.15" stroke="#000" stroke-opacity="0.02" transform="translate(58.023702053557, 67) rotate(180, 29.011851026779, 33.5)" /><polyline points="0, 0, 58.023702053557, 33.5, 0, 67, 0, 0" fill="#222" fill-opacity="0.15" stroke="#000" stroke-opacity="0.02" transform="translate(116.04740410711, 67) rotate(0, 29.011851026779, 33.5)" /><polyline points="0, 0, 58.023702053557, 33.5, 0, 67, 0, 0" fill="#ddd" fill-opacity="0.02" stroke="#000" stroke-opacity="0.02" transform="translate(174.07110616067, 67) rotate(180, 29.011851026779, 33.5)" /><polyline points="0, 0, 58.023702053557, 33.5, 0, 67, 0, 0" fill="#ddd" fill-opacity="0.14133333333333" stroke="#000" stroke-opacity="0.02" transform="translate(232.09480821423, 67) rotate(0, 29.011851026779, 33.5)" /><polyline points="0, 0, 58.023702053557, 33.5, 0, 67, 0, 0" fill="#ddd" fill-opacity="0.02" stroke="#000" stroke-opacity="0.02" transform="translate(290.11851026779, 67) rotate(180, 29.011851026779, 33.5)" /><polyline points="0, 0, 58.023702053557, 33.5, 0, 67, 0, 0" fill="#ddd" fill-opacity="0.10666666666667" stroke="#000" stroke-opacity="0.02" transform="translate(0, 100.5) rotate(180, 29.011851026779, 33.5)" /><polyline points="0, 0, 58.023702053557, 33.5, 0, 67, 0, 0" fill="#ddd" fill-opacity="0.02" stroke="#000" stroke-opacity="0.02" transform="translate(58.023702053557, 100.5) rotate(0, 29.011851026779, 33.5)" /><polyline points="0, 0, 58.023702053557, 33.5, 0, 67, 0, 0" fill="#ddd" fill-opacity="0.10666666666667" stroke="#000" stroke-opacity="0.02" transform="translate(116.04740410711, 100.5) rotate(180, 29.011851026779, 33.5)" /><polyline points="0, 0, 58.023702053557, 33.5, 0, 67, 0, 0" fill="#222" fill-opacity="0.063333333333333" stroke="#000" stroke-opacity="0.02" transform="translate(174.07110616067, 100.5) rotate(0, 29.011851026779, 33.5)" /><polyline points="0, 0, 58.023702053557, 33.5, 0, 67, 0, 0" fill="#ddd" fill-opacity="0.037333333333333" stroke="#000" stroke-opacity="0.02" transform="translate(232.09480821423, 100.5) rotate(180, 29.011851026779, 33.5)" /><polyline points="0, 0, 58.023702053557, 33.5, 0, 67, 0, 0" fill="#222" fill-opacity="0.098" stroke="#000" stroke-opacity="0.02" transform="translate(290.11851026779, 100.5) rotate(0, 29.011851026779, 33.5)" /><polyline points="0, 0, 58.023702053557, 33.5, 0, 67, 0, 0" fill="#222" fill-opacity="0.046" stroke="#000" stroke-opacity="0.02" transform="translate(0, 134) rotate(0, 29.011851026779, 33.5)" /><polyline points="0, 0, 58.023702053557, 33.5, 0, 67, 0, 0" fill="#222" fill-opacity="0.063333333333333" stroke="#000" stroke-opacity="0.02" transform="translate(58.023702053557, 134) rotate(180, 29.011851026779, 33.5)" /><polyline points="0, 0, 58.023702053557, 33.5, 0, 67, 0, 0" fill="#222" fill-opacity="0.13266666666667" stroke="#000" stroke-opacity="0.02" transform="translate(116.04740410711, 134) rotate(0, 29.011851026779, 33.5)" /><polyline points="0, 0, 58.023702053557, 33.5, 0, 67, 0, 0" fill="#ddd" fill-opacity="0.14133333333333" stroke="#000" stroke-opacity="0.02" transform="translate(174.07110616067, 134) rotate(180, 29.011851026779, 33.5)" /><polyline points="0, 0, 58.023702053557, 33.5, 0, 67, 0, 0" fill="#222" fill-opacity="0.046" stroke="#000" stroke-opacity="0.02" transform="translate(232.09480821423, 134) rotate(0, 29.011851026779, 33.5)" /><polyline points="0, 0, 58.023702053557, 33.5, 0, 67, 0, 0" fill="#ddd" fill-opacity="0.037333333333333" stroke="#000" stroke-opacity="0.02" transform="translate(290.11851026779, 134) rotate(180, 29.011851026779, 33.5)" /></svg>