<?xml version="1.0"?><svg xmlns="http://www.w3.org/2000/svg" width="123" height="126"><rect x="0" y="0" width="100%" height="100%" fill="rgb(125, 252, 135)" /><polyline points="10.333333333333, 0, 20.666666666667, 21, 10.333333333333, 42, 0, 21" fill="#ddd" fill-opacity="0.054666666666667" stroke="#000" stroke-opacity="0.02" transform="translate(-10.333333333333, -21)" /><polyline points="10.333333333333, 0, 20.666666666667, 21, 10.333333333333, 42, 0, 21" fill="#ddd" fill-opacity="0.054666666666667" stroke="#000" stroke-opacity="0.02" transform="translate(113.66666666667, -21)" /><polyline points="10.333333333333, 0, 20.666666666667, 21, 10.333333333333, 42, 0, 21" fill="#ddd" fill-opacity="0.054666666666667" stroke="#000" stroke-opacity="0.02" transform="translate(-10.333333333333, 105)" /><polyline points="10.333333333333, 0, 20.666666666667, 21, 10.333333333333, 42, 0, 21" fill="#ddd" fill-opacity="0.054666666666667" stroke="#000" stroke-opacity="0.02" transform="translate(113.66666666667, 105)" /><polyline points="10.333333333333, 0, 20.666666666667, 21, 10.333333333333, 42, 0, 21" fill="#ddd" fill-opacity="0.124" stroke="#000" stroke-opacity="0.02" transform="translate(10.333333333333, -21)" /><polyline points="10.333333333333, 0, 20.666666666667, 21, 10.333333333333, 42, 0, 21" fill="#ddd" fill-opacity="0.124" stroke="#000" stroke-opacity="0.02" transform="translate(10.333333333333, 105)" /><polyline points="10.333333333333, 0, 20.666666666667, 21, 10.333333333333, 42, 0, 21" fill="#222" fill-opacity="0.063333333333333" stroke="#000" stroke-opacity="0.02" transform="translate(31, -21)" /><polyline points="10.333333333333, 0, 20.666666666667, 21, 10.333333333333, 42, 0, 21" fill="#222" fill-opacity="0.063333333333333" stroke="#000" stroke-opacity="0.02" transform="translate(31, 105)" /><polyline points="10.333333333333, 0, 20.666666666667, 21, 10.333333333333, 42, 0, 21" fill="#222" fill-opacity="0.13266666666667" stroke="#000" stroke-opacity="0.02" transform="translate(51.666666666667, -21)" /><polyline points="10.333333333333, 0, 20.666666666667, 21, 10.333333333333, 42, 0, 21" fill="#222" fill-opacity="0.13266666666667" stroke="#000" stroke-opacity="0.02" transform="translate(51.666666666667, 105)" /><polyline points="10.333333333333, 0, 20.666666666667, 21, 10.333333333333, 42, 0, 21" fill="#222" fill-opacity="0.080666666666667" stroke="#000" stroke-opacity="0.02" transform="translate(72.333333333333, -21)" /><polyline points="10.333333333333, 0, 20.666666666667, 21, 10.333333333333, 42, 0, 21" fill="#222" fill-opacity="0.080666666666667" stroke="#000" stroke-opacity="0.02" transform="translate(72.333333333333, 105)" /><polyline points="10.333333333333, 0, 20.666666666667, 21, 10.333333333333, 42, 0, 21" fill="#ddd" fill-opacity="0.089333333333333" stroke="#000" stroke-opacity="0.02" transform="translate(93, -21)" /><polyline points="10.333333333333, 0, 20.666666666667, 21, 10.333333333333, 42, 0, 21" fill="#ddd" fill-opacity="0.089333333333333" stroke="#000" stroke-opacity="0.02" transform="translate(93, 105)" /><polyline points="10.333333333333, 0, 20.666666666667, 21, 10.333333333333, 42, 0, 21" fill="#222" fill-opacity="0.028666666666667" stroke="#000" stroke-opacity="0.02" transform="translate(0, 0)" /><polyline points="10.333333333333, 0, 20.666666666667, 21, 10.333333333333, 42, 0, 21" fill="#222" fill-opacity="0.028666666666667" stroke="#000" stroke-opacity="0.02" transform="translate(124, 0)" /><polyline points="10.333333333333, 0, 20.666666666667, 21, 10.333333333333, 42, 0, 21" fill="#222" fill-opacity="0.080666666666667" stroke="#000" stroke-opacity="0.02" transform="translate(20.666666666667, 0)" /><polyline points="10.333333333333, 0, 20.666666666667, 21, 10.333333333333, 42, 0, 21" fill="#222" fill-opacity="0.063333333333333" stroke="#000" stroke-opacity="0.02" transform="translate(41.333333333333, 0)" /><polyline points="10.333333333333, 0, 20.666666666667, 21, 10.333333333333, 42, 0, 21" fill="#222" fill-opacity="0.098" stroke="#000" stroke-opacity="0.02" transform="translate(62, 0)" /><polyline points="10.333333333333, 0, 20.666666666667, 21, 10.333333333333, 42, 0, 21" fill="#ddd" fill-opacity="0.089333333333333" stroke="#000" stroke-opacity="0.02" transform="translate(82.666666666667, 0)" /><polyline points="10.333333333333, 0, 20.666666666667, 21, 10.333333333333, 42, 0, 21" fill="#222" fill-opacity="0.028666666666667" stroke="#000" stroke-opacity="0.02" transform="translate(103.33333333333, 0)" /><polyline points="10.333333333333, 0, 20.666666666667, 21, 10.333333333333, 42, 0, 21" fill="#222" fill-opacity="0.063333333333333" stroke="#000" stroke-opacity="0.02" transform="translate(-10.333333333333, 21)" /><polyline points="10.333333333333, 0, 20.666666666667, 21, 10.333333333333, 42, 0, 21" fill="#222" fill-opacity="0.063333333333333" stroke="#000" stroke-opacity="0.02" transform="translate(113.66666666667, 21)" /><polyline points="10.333333333333, 0, 20.666666666667, 21, 10.333333333333, 42, 0, 21" fill="#ddd" fill-opacity="0.072" stroke="#000" stroke-opacity="0.02" transform="translate(10.333333333333, 21)" /><polyline points="10.333333333333, 0, 20.666666666667, 21, 10.333333333333, 42, 0, 21" fill="#222" fill-opacity="0.15" stroke="#000" stroke-opacity="0.02" transform="translate(31, 21)" /><polyline points="10.333333333333, 0, 20.666666666667, 21, 10.333333333333, 42, 0, 21" fill="#ddd" fill-opacity="0.14133333333333" stroke="#000" stroke-opacity="0.02" transform="translate(51.666666666667, 21)" /><polyline points="10.333333333333, 0, 20.666666666667, 21, 10.333333333333, 42, 0, 21" fill="#222" fill-opacity="0.15" stroke="#000" stroke-opacity="0.02" transform="translate(72.333333333333, 21)" /><polyline points="10.333333333333, 0, 20.666666666667, 21, 10.333333333333, 42, 0, 21" fill="#ddd" fill-opacity="0.072" stroke="#000" stroke-opacity="0.02" transform="translate(93, 21)" /><polyline points="10.333333333333, 0, 20.666666666667, 21, 10.333333333333, 42, 0, 21" fill="#222" fill-opacity="0.11533333333333" stroke="#000" stroke-opacity="0.02" transform="translate(0, 42)" /><polyline points="10.333333333333, 0, 20.666666666667, 21, 10.333333333333, 42, 0, 21" fill="#222" fill-opacity="0.11533333333333" stroke="#000" stroke-opacity="0.02" transform="translate(124, 42)" /><polyline points="10.333333333333, 0, 20.666666666667, 21, 10.333333333333, 42, 0, 21" fill="#ddd" fill-opacity="0.072" stroke="#000" stroke-opacity="0.02" transform="translate(20.666666666667, 42)" /><polyline points="10.333333333333, 0, 20.666666666667, 21, 10.333333333333, 42, 0, 21" fill="#222" fill-opacity="0.11533333333333" stroke="#000" stroke-opacity="0.02" transform="translate(41.333333333333, 42)" /><polyline points="10.333333333333, 0, 20.666666666667, 21, 10.333333333333, 42, 0, 21" fill="#222" fill-opacity="0.13266666666667" stroke="#000" stroke-opacity="0.02" transform="translate(62, 42)" /><polyline points="10.333333333333, 0, 20.666666666667, 21, 10.333333333333, 42, 0, 21" fill="#ddd" fill-opacity="0.089333333333333" stroke="#000" stroke-opacity="0.02" transform="translate(82.666666666667, 42)" /><polyline points="10.333333333333, 0, 20.666666666667, 21, 10.333333333333, 42, 0, 21" fill="#ddd" fill-opacity="0.054666666666667" stroke="#000" stroke-opacity="0.02" transform="translate(103.33333333333, 42)" /><polyline points="10.333333333333, 0, 20.666666666667, 21, 10.333333333333, 42, 0, 21" fill="#222" fill-opacity="0.028666666666667" stroke="#000" stroke-opacity="0.02" transform="translate(-10.333333333333, 63)" /><polyline points="10.333333333333, 0, 20.666666666667, 21, 10.333333333333, 42, 0, 21" fill="#222" fill-opacity="0.028666666666667" stroke="#000" stroke-opacity="0.02" transform="translate(113.66666666667, 63)" /><polyline points="10.333333333333, 0, 20.666666666667, 21, 10.333333333333, 42, 0, 21" fill="#222" fill-opacity="0.046" stroke="#000" stroke-opacity="0.02" transform="translate(10.333333333333, 63)" /><polyline points="10.333333333333, 0, 20.666666666667, 21, 10.333333333333, 42, 0, 21" fill="#222" fill-opacity="0.046" stroke="#000" stroke-opacity="0.02" transform="translate(31, 63)" /><polyline points="10.333333333333, 0, 20.666666666667, 21, 10.333333333333, 42, 0, 21" fill="#ddd" fill-opacity="0.02" stroke="#000" stroke-opacity="0.02" transform="translate(51.666666666667, 63)" /><polyline points="10.333333333333, 0, 20.666666666667, 21, 10.333333333333, 42, 0, 21" fill="#ddd" fill-opacity="0.054666666666667" stroke="#000" stroke-opacity="0.02" transform="translate(72.333333333333, 63)" /><polyline points="10.333333333333, 0, 20.666666666667, 21, 10.333333333333, 42, 0, 21" fill="#222" fill-opacity="0.028666666666667" stroke="#000" stroke-opacity="0.02" transform="translate(93, 63)" /><polyline points="10.333333333333, 0, 20.666666666667, 21, 10.333333333333, 42, 0, 21" fill="#ddd" fill-opacity="0.037333333333333" stroke="#000" stroke-opacity="0.02" transform="translate(0, 84)" /><polyline points="10.333333333333, 0, 20.666666666667, 21, 10.333333333333, 42, 0, 21" fill="#ddd" fill-opacity="0.037333333333333" stroke="#000" stroke-opacity="0.02" transform="translate(124, 84)" /><polyline points="10.333333333333, 0, 20.666666666667, 21, 10.333333333333, 42, 0, 21" fill="#222" fill-opacity="0.080666666666667" stroke="#000" stroke-opacity="0.02" transform="translate(20.666666666667, 84)" /><polyline points="10.333333333333, 0, 20.666666666667, 21, 10.333333333333, 42, 0, 21" fill="#ddd" fill-opacity="0.02" stroke="#000" stroke-opacity="0.02" transform="translate(41.333333333333, 84)" /><polyline points="10.333333333333, 0, 20.666666666667, 21, 10.333333333333, 42, 0, 21" fill="#222" fill-opacity="0.13266666666667" stroke="#000" stroke-opacity="0.02" transform="translate(62, 84)" /><polyline points="10.333333333333, 0, 20.666666666667, 21, 10.333333333333, 42, 0, 21" fill="#222" fill-opacity="0.11533333333333" stroke="#000" stroke-opacity="0.02" transform="translate(82.666666666667, 84)" /><polyline points="10.333333333333, 0, 20.666666666667, 21, 10.333333333333, 42, 0, 21" fill="#222" fill-opacity="0.046" stroke="#000" stroke-opacity="0.02" transform="translate(103.33333333333, 84)" /></svg>