<?xml version="1.0"?><svg xmlns="http://www.w3.org/2000/svg" width="100" height="792"><rect x="0" y="0" width="100%" height="100%" fill="rgb(108, 92, 231)" /><path d="M0 34 C 17.5 0, 33 0, 50 34 S 83 68, 100 34 S 133 0, 150, 34" fill="none" stroke="#ddd" style="opacity:0.02;stroke-width:22px;" transform="translate(-25, -51)" /><path d="M0 34 C 17.5 0, 33 0, 50 34 S 83 68, 100 34 S 133 0, 150, 34" fill="none" stroke="#ddd" style="opacity:0.02;stroke-width:22px;" transform="translate(-25, 741)" /><path d="M0 34 C 17.5 0, 33 0, 50 34 S 83 68, 100 34 S 133 0, 150, 34" fill="none" stroke="#222" style="opacity:0.028666666666667;stroke-width:22px;" transform="translate(-25, -29)" /><path d="M0 34 C 17.5 0, 33 0, 50 34 S 83 68, 100 34 S 133 0, 150, 34" fill="none" stroke="#222" style="opacity:0.028666666666667;stroke-width:22px;" transform="translate(-25, 763)" /><path d="M0 34 C 17.5 0, 33 0, 50 34 S 83 68, 100 34 S 133 0, 150, 34" fill="none" stroke="#222" style="opacity:0.11533333333333;stroke-width:22px;" transform="translate(-25, -7)" /><path d="M0 34 C 17.5 0, 33 0, 50 34 S 83 68, 100 34 S 133 0, 150, 34" fill="none" stroke="#222" style="opacity:0.11533333333333;stroke-width:22px;" transform="translate(-25, 785)" /><path d="M0 34 C 17.5 0, 33 0, 50 34 S 83 68, 100 34 S 133 0, 150, 34" fill="none" stroke="#ddd" style="opacity:0.037333333333333;stroke-width:22px;" transform="translate(-25, 15)" /><path d="M0 34 C 17.5 0, 33 0, 50 34 S 83 68, 100 34 S 133 0, 150, 34" fill="none" stroke="#ddd" style="opacity:0.037333333333333;stroke-width:22px;" transform="translate(-25, 807)" /><path d="M0 34 C 17.5 0, 33 0, 50 34 S 83 68, 100 34 S 133 0, 150, 34" fill="none" stroke="#ddd" style="opacity:0.02;stroke-width:22px;" transform="translate(-25, 37)" /><path d="M0 34 C 17.5 0, 33 0, 50 34 S 83 68, 100 34 S 133 0, 150, 34" fill="none" stroke="#ddd" style="opacity:0.02;stroke-width:22px;" transform="translate(-25, 829)" /><path d="M0 34 C 17.5 0, 33 0, 50 34 S 83 68, 100 34 S 133 0, 150, 34" fill="none" stroke="#222" style="opacity:0.028666666666667;stroke-width:22px;" transform="translate(-25, 59)" /><path d="M0 34 C 17.5 0, 33 0, 50 34 S 83 68, 100 34 S 133 0, 150, 34" fill="none" stroke="#222" style="opacity:0.028666666666667;stroke-width:22px;" transform="translate(-25, 851)" /><path d="M0 34 C 17.5 0, 33 0, 50 34 S 83 68, 100 34 S 133 0, 150, 34" fill="none" stroke="#ddd" style="opacity:0.072;stroke-width:22px;" transform="translate(-25, 81)" /><path d="M0 34 C 17.5 0, 33 0, 50 34 S 83 68, 100 34 S 133 0, 150, 34" fill="none" stroke="#ddd" style="opacity:0.072;stroke-width:22px;" transform="translate(-25, 873)" /><path d="M0 34 C 17.5 0, 33 0, 50 34 S 83 68, 100 34 S 133 0, 150, 34" fill="none" stroke="#ddd" style="opacity:0.054666666666667;stroke-width:22px;" transform="translate(-25, 103)" /><path d="M0 34 C 17.5 0, 33 0, 50 34 S 83 68, 100 34 S 133 0, 150, 34" fill="none" stroke="#ddd" style="opacity:0.054666666666667;stroke-width:22px;" transform="translate(-25, 895)" /><path d="M0 34 C 17.5 0, 33 0, 50 34 S 83 68, 100 34 S 133 0, 150, 34" fill="none" stroke="#ddd" style="opacity:0.072;stroke-width:22px;" transform="translate(-25, 125)" /><path d="M0 34 C 17.5 0, 33 0, 50 34 S 83 68, 100 34 S 133 0, 150, 34" fill="none" stroke="#ddd" style="opacity:0.072;stroke-width:22px;" transform="translate(-25, 917)" /><path d="M0 34 C 17.5 0, 33 0, 50 34 S 83 68, 100 34 S 133 0, 150, 34" fill="none" stroke="#222" style="opacity:0.15;stroke-width:22px;" transform="translate(-25, 147)" /><path d="M0 34 C 17.5 0, 33 0, 50 34 S 83 68, 100 34 S 133 0, 150, 34" fill="none" stroke="#222" style="opacity:0.15;stroke-width:22px;" transform="translate(-25, 939)" /><path d="M0 34 C 17.5 0, 33 0, 50 34 S 83 68, 100 34 S 133 0, 150, 34" fill="none" stroke="#222" style="opacity:0.11533333333333;stroke-width:22px;" transform="translate(-25, 169)" /><path d="M0 34 C 17.5 0, 33 0, 50 34 S 83 68, 100 34 S 133 0, 150, 34" fill="none" stroke="#222" style="opacity:0.11533333333333;stroke-width:22px;" transform="translate(-25, 961)" /><path d="M0 34 C 17.5 0, 33 0, 50 34 S 83 68, 100 34 S 133 0, 150, 34" fill="none" stroke="#ddd" style="opacity:0.124;stroke-width:22px;" transform="translate(-25, 191)" /><path d="M0 34 C 17.5 0, 33 0, 50 34 S 83 68, 100 34 S 133 0, 150, 34" fill="none" stroke="#ddd" style="opacity:0.124;stroke-width:22px;" transform="translate(-25, 983)" /><path d="M0 34 C 17.5 0, 33 0, 50 34 S 83 68, 100 34 S 133 0, 150, 34" fill="none" stroke="#222" style="opacity:0.13266666666667;stroke-width:22px;" transform="translate(-25, 213)" /><path d="M0 34 C 17.5 0, 33 0, 50 34 S 83 68, 100 34 S 133 0, 150, 34" fill="none" stroke="#222" style="opacity:0.13266666666667;stroke-width:22px;" transform="translate(-25, 1005)" /><path d="M0 34 C 17.5 0, 33 0, 50 34 S 83 68, 100 34 S 133 0, 150, 34" fill="none" stroke="#222" style="opacity:0.063333333333333;stroke-width:22px;" transform="translate(-25, 235)" /><path d="M0 34 C 17.5 0, 33 0, 50 34 S 83 68, 100 34 S 133 0, 150, 34" fill="none" stroke="#222" style="opacity:0.063333333333333;stroke-width:22px;" transform="translate(-25, 1027)" /><path d="M0 34 C 17.5 0, 33 0, 50 34 S 83 68, 100 34 S 133 0, 150, 34" fill="none" stroke="#222" style="opacity:0.11533333333333;stroke-width:22px;" transform="translate(-25, 257)" /><path d="M0 34 C 17.5 0, 33 0, 50 34 S 83 68, 100 34 S 133 0, 150, 34" fill="none" stroke="#222" style="opacity:0.11533333333333;stroke-width:22px;" transform="translate(-25, 1049)" /><path d="M0 34 C 17.5 0, 33 0, 50 34 S 83 68, 100 34 S 133 0, 150, 34" fill="none" stroke="#ddd" style="opacity:0.054666666666667;stroke-width:22px;" transform="translate(-25, 279)" /><path d="M0 34 C 17.5 0, 33 0, 50 34 S 83 68, 100 34 S 133 0, 150, 34" fill="none" stroke="#ddd" style="opacity:0.054666666666667;stroke-width:22px;" transform="translate(-25, 1071)" /><path d="M0 34 C 17.5 0, 33 0, 50 34 S 83 68, 100 34 S 133 0, 150, 34" fill="none" stroke="#222" style="opacity:0.13266666666667;stroke-width:22px;" transform="translate(-25, 301)" /><path d="M0 34 C 17.5 0, 33 0, 50 34 S 83 68, 100 34 S 133 0, 150, 34" fill="none" stroke="#222" style="opacity:0.13266666666667;stroke-width:22px;" transform="translate(-25, 1093)" /><path d="M0 34 C 17.5 0, 33 0, 50 34 S 83 68, 100 34 S 133 0, 150, 34" fill="none" stroke="#222" style="opacity:0.063333333333333;stroke-width:22px;" transform="translate(-25, 323)" /><path d="M0 34 C 17.5 0, 33 0, 50 34 S 83 68, 100 34 S 133 0, 150, 34" fill="none" stroke="#222" style="opacity:0.063333333333333;stroke-width:22px;" transform="translate(-25, 1115)" /><path d="M0 34 C 17.5 0, 33 0, 50 34 S 83 68, 100 34 S 133 0, 150, 34" fill="none" stroke="#222" style="opacity:0.11533333333333;stroke-width:22px;" transform="translate(-25, 345)" /><path d="M0 34 C 17.5 0, 33 0, 50 34 S 83 68, 100 34 S 133 0, 150, 34" fill="none" stroke="#222" style="opacity:0.11533333333333;stroke-width:22px;" transform="translate(-25, 1137)" /><path d="M0 34 C 17.5 0, 33 0, 50 34 S 83 68, 100 34 S 133 0, 150, 34" fill="none" stroke="#222" style="opacity:0.063333333333333;stroke-width:22px;" transform="translate(-25, 367)" /><path d="M0 34 C 17.5 0, 33 0, 50 34 S 83 68, 100 34 S 133 0, 150, 34" fill="none" stroke="#222" style="opacity:0.063333333333333;stroke-width:22px;" transform="translate(-25, 1159)" /><path d="M0 34 C 17.5 0, 33 0, 50 34 S 83 68, 100 34 S 133 0, 150, 34" fill="none" stroke="#ddd" style="opacity:0.054666666666667;stroke-width:22px;" transform="translate(-25, 389)" /><path d="M0 34 C 17.5 0, 33 0, 50 34 S 83 68, 100 34 S 133 0, 150, 34" fill="none" stroke="#ddd" style="opacity:0.054666666666667;stroke-width:22px;" transform="translate(-25, 1181)" /><path d="M0 34 C 17.5 0, 33 0, 50 34 S 83 68, 100 34 S 133 0, 150, 34" fill="none" stroke="#222" style="opacity:0.15;stroke-width:22px;" transform="translate(-25, 411)" /><path d="M0 34 C 17.5 0, 33 0, 50 34 S 83 68, 100 34 S 133 0, 150, 34" fill="none" stroke="#222" style="opacity:0.15;stroke-width:22px;" transform="translate(-25, 1203)" /><path d="M0 34 C 17.5 0, 33 0, 50 34 S 83 68, 100 34 S 133 0, 150, 34" fill="none" stroke="#ddd" style="opacity:0.14133333333333;stroke-width:22px;" transform="translate(-25, 433)" /><path d="M0 34 C 17.5 0, 33 0, 50 34 S 83 68, 100 34 S 133 0, 150, 34" fill="none" stroke="#ddd" style="opacity:0.14133333333333;stroke-width:22px;" transform="translate(-25, 1225)" /><path d="M0 34 C 17.5 0, 33 0, 50 34 S 83 68, 100 34 S 133 0, 150, 34" fill="none" stroke="#222" style="opacity:0.11533333333333;stroke-width:22px;" transform="translate(-25, 455)" /><path d="M0 34 C 17.5 0, 33 0, 50 34 S 83 68, 100 34 S 133 0, 150, 34" fill="none" stroke="#222" style="opacity:0.11533333333333;stroke-width:22px;" transform="translate(-25, 1247)" /><path d="M0 34 C 17.5 0, 33 0, 50 34 S 83 68, 100 34 S 133 0, 150, 34" fill="none" stroke="#222" style="opacity:0.098;stroke-width:22px;" transform="translate(-25, 477)" /><path d="M0 34 C 17.5 0, 33 0, 50 34 S 83 68, 100 34 S 133 0, 150, 34" fill="none" stroke="#222" style="opacity:0.098;stroke-width:22px;" transform="translate(-25, 1269)" /><path d="M0 34 C 17.5 0, 33 0, 50 34 S 83 68, 100 34 S 133 0, 150, 34" fill="none" stroke="#ddd" style="opacity:0.10666666666667;stroke-width:22px;" transform="translate(-25, 499)" /><path d="M0 34 C 17.5 0, 33 0, 50 34 S 83 68, 100 34 S 133 0, 150, 34" fill="none" stroke="#ddd" style="opacity:0.10666666666667;stroke-width:22px;" transform="translate(-25, 1291)" /><path d="M0 34 C 17.5 0, 33 0, 50 34 S 83 68, 100 34 S 133 0, 150, 34" fill="none" stroke="#222" style="opacity:0.11533333333333;stroke-width:22px;" transform="translate(-25, 521)" /><path d="M0 34 C 17.5 0, 33 0, 50 34 S 83 68, 100 34 S 133 0, 150, 34" fill="none" stroke="#222" style="opacity:0.11533333333333;stroke-width:22px;" transform="translate(-25, 1313)" /><path d="M0 34 C 17.5 0, 33 0, 50 34 S 83 68, 100 34 S 133 0, 150, 34" fill="none" stroke="#ddd" style="opacity:0.02;stroke-width:22px;" transform="translate(-25, 543)" /><path d="M0 34 C 17.5 0, 33 0, 50 34 S 83 68, 100 34 S 133 0, 150, 34" fill="none" stroke="#ddd" style="opacity:0.02;stroke-width:22px;" transform="translate(-25, 1335)" /><path d="M0 34 C 17.5 0, 33 0, 50 34 S 83 68, 100 34 S 133 0, 150, 34" fill="none" stroke="#222" style="opacity:0.15;stroke-width:22px;" transform="translate(-25, 565)" /><path d="M0 34 C 17.5 0, 33 0, 50 34 S 83 68, 100 34 S 133 0, 150, 34" fill="none" stroke="#222" style="opacity:0.15;stroke-width:22px;" transform="translate(-25, 1357)" /><path d="M0 34 C 17.5 0, 33 0, 50 34 S 83 68, 100 34 S 133 0, 150, 34" fill="none" stroke="#222" style="opacity:0.098;stroke-width:22px;" transform="translate(-25, 587)" /><path d="M0 34 C 17.5 0, 33 0, 50 34 S 83 68, 100 34 S 133 0, 150, 34" fill="none" stroke="#222" style="opacity:0.098;stroke-width:22px;" transform="translate(-25, 1379)" /><path d="M0 34 C 17.5 0, 33 0, 50 34 S 83 68, 100 34 S 133 0, 150, 34" fill="none" stroke="#ddd" style="opacity:0.037333333333333;stroke-width:22px;" transform="translate(-25, 609)" /><path d="M0 34 C 17.5 0, 33 0, 50 34 S 83 68, 100 34 S 133 0, 150, 34" fill="none" stroke="#ddd" style="opacity:0.037333333333333;stroke-width:22px;" transform="translate(-25, 1401)" /><path d="M0 34 C 17.5 0, 33 0, 50 34 S 83 68, 100 34 S 133 0, 150, 34" fill="none" stroke="#222" style="opacity:0.063333333333333;stroke-width:22px;" transform="translate(-25, 631)" /><path d="M0 34 C 17.5 0, 33 0, 50 34 S 83 68, 100 34 S 133 0, 150, 34" fill="none" stroke="#222" style="opacity:0.063333333333333;stroke-width:22px;" transform="translate(-25, 1423)" /><path d="M0 34 C 17.5 0, 33 0, 50 34 S 83 68, 100 34 S 133 0, 150, 34" fill="none" stroke="#ddd" style="opacity:0.02;stroke-width:22px;" transform="translate(-25, 653)" /><path d="M0 34 C 17.5 0, 33 0, 50 34 S 83 68, 100 34 S 133 0, 150, 34" fill="none" stroke="#ddd" style="opacity:0.02;stroke-width:22px;" transform="translate(-25, 1445)" /><path d="M0 34 C 17.5 0, 33 0, 50 34 S 83 68, 100 34 S 133 0, 150, 34" fill="none" stroke="#ddd" style="opacity:0.124;stroke-width:22px;" transform="translate(-25, 675)" /><path d="M0 34 C 17.5 0, 33 0, 50 34 S 83 68, 100 34 S 133 0, 150, 34" fill="none" stroke="#ddd" style="opacity:0.124;stroke-width:22px;" transform="translate(-25, 1467)" /><path d="M0 34 C 17.5 0, 33 0, 50 34 S 83 68, 100 34 S 133 0, 150, 34" fill="none" stroke="#ddd" style="opacity:0.14133333333333;stroke-width:22px;" transform="translate(-25, 697)" /><path d="M0 34 C 17.5 0, 33 0, 50 34 S 83 68, 100 34 S 133 0, 150, 34" fill="none" stroke="#ddd" style="opacity:0.14133333333333;stroke-width:22px;" transform="translate(-25, 1489)" /><path d="M0 34 C 17.5 0, 33 0, 50 34 S 83 68, 100 34 S 133 0, 150, 34" fill="none" stroke="#ddd" style="opacity:0.072;stroke-width:22px;" transform="translate(-25, 719)" /><path d="M0 34 C 17.5 0, 33 0, 50 34 S 83 68, 100 34 S 133 0, 150, 34" fill="none" stroke="#ddd" style="opacity:0.072;stroke-width:22px;" transform="translate(-25, 1511)" /></svg>