<?xml version="1.0"?><svg xmlns="http://www.w3.org/2000/svg" width="120" height="120"><rect x="0" y="0" width="100%" height="100%" fill="rgb(125, 252, 135)" /><circle cx="0" cy="0" r="17.5" fill="none" stroke="#222" style="opacity:0.046;stroke-width:5px;" /><circle cx="120" cy="0" r="17.5" fill="none" stroke="#222" style="opacity:0.046;stroke-width:5px;" /><circle cx="0" cy="120" r="17.5" fill="none" stroke="#222" style="opacity:0.046;stroke-width:5px;" /><circle cx="120" cy="120" r="17.5" fill="none" stroke="#222" style="opacity:0.046;stroke-width:5px;" /><circle cx="20" cy="0" r="17.5" fill="none" stroke="#ddd" style="opacity:0.14133333333333;stroke-width:5px;" /><circle cx="20" cy="120" r="17.5" fill="none" stroke="#ddd" style="opacity:0.14133333333333;stroke-width:5px;" /><circle cx="40" cy="0" r="17.5" fill="none" stroke="#222" style="opacity:0.11533333333333;stroke-width:5px;" /><circle cx="40" cy="120" r="17.5" fill="none" stroke="#222" style="opacity:0.11533333333333;stroke-width:5px;" /><circle cx="60" cy="0" r="17.5" fill="none" stroke="#222" style="opacity:0.11533333333333;stroke-width:5px;" /><circle cx="60" cy="120" r="17.5" fill="none" stroke="#222" style="opacity:0.11533333333333;stroke-width:5px;" /><circle cx="80" cy="0" r="17.5" fill="none" stroke="#ddd" style="opacity:0.072;stroke-width:5px;" /><circle cx="80" cy="120" r="17.5" fill="none" stroke="#ddd" style="opacity:0.072;stroke-width:5px;" /><circle cx="100" cy="0" r="17.5" fill="none" stroke="#222" style="opacity:0.063333333333333;stroke-width:5px;" /><circle cx="100" cy="120" r="17.5" fill="none" stroke="#222" style="opacity:0.063333333333333;stroke-width:5px;" /><circle cx="0" cy="20" r="17.5" fill="none" stroke="#ddd" style="opacity:0.10666666666667;stroke-width:5px;" /><circle cx="120" cy="20" r="17.5" fill="none" stroke="#ddd" style="opacity:0.10666666666667;stroke-width:5px;" /><circle cx="20" cy="20" r="17.5" fill="none" stroke="#ddd" style="opacity:0.089333333333333;stroke-width:5px;" /><circle cx="40" cy="20" r="17.5" fill="none" stroke="#ddd" style="opacity:0.14133333333333;stroke-width:5px;" /><circle cx="60" cy="20" r="17.5" fill="none" stroke="#ddd" style="opacity:0.054666666666667;stroke-width:5px;" /><circle cx="80" cy="20" r="17.5" fill="none" stroke="#ddd" style="opacity:0.02;stroke-width:5px;" /><circle cx="100" cy="20" r="17.5" fill="none" stroke="#ddd" style="opacity:0.037333333333333;stroke-width:5px;" /><circle cx="0" cy="40" r="17.5" fill="none" stroke="#ddd" style="opacity:0.089333333333333;stroke-width:5px;" /><circle cx="120" cy="40" r="17.5" fill="none" stroke="#ddd" style="opacity:0.089333333333333;stroke-width:5px;" /><circle cx="20" cy="40" r="17.5" fill="none" stroke="#222" style="opacity:0.063333333333333;stroke-width:5px;" /><circle cx="40" cy="40" r="17.5" fill="none" stroke="#222" style="opacity:0.080666666666667;stroke-width:5px;" /><circle cx="60" cy="40" r="17.5" fill="none" stroke="#ddd" style="opacity:0.072;stroke-width:5px;" /><circle cx="80" cy="40" r="17.5" fill="none" stroke="#ddd" style="opacity:0.089333333333333;stroke-width:5px;" /><circle cx="100" cy="40" r="17.5" fill="none" stroke="#ddd" style="opacity:0.10666666666667;stroke-width:5px;" /><circle cx="0" cy="60" r="17.5" fill="none" stroke="#ddd" style="opacity:0.10666666666667;stroke-width:5px;" /><circle cx="120" cy="60" r="17.5" fill="none" stroke="#ddd" style="opacity:0.10666666666667;stroke-width:5px;" /><circle cx="20" cy="60" r="17.5" fill="none" stroke="#ddd" style="opacity:0.02;stroke-width:5px;" /><circle cx="40" cy="60" r="17.5" fill="none" stroke="#ddd" style="opacity:0.072;stroke-width:5px;" /><circle cx="60" cy="60" r="17.5" fill="none" stroke="#ddd" style="opacity:0.14133333333333;stroke-width:5px;" /><circle cx="80" cy="60" r="17.5" fill="none" stroke="#222" style="opacity:0.11533333333333;stroke-width:5px;" /><circle cx="100" cy="60" r="17.5" fill="none" stroke="#ddd" style="opacity:0.089333333333333;stroke-width:5px;" /><circle cx="0" cy="80" r="17.5" fill="none" stroke="#ddd" style="opacity:0.124;stroke-width:5px;" /><circle cx="120" cy="80" r="17.5" fill="none" stroke="#ddd" style="opacity:0.124;stroke-width:5px;" /><circle cx="20" cy="80" r="17.5" fill="none" stroke="#222" style="opacity:0.098;stroke-width:5px;" /><circle cx="40" cy="80" r="17.5" fill="none" stroke="#222" style="opacity:0.028666666666667;stroke-width:5px;" /><circle cx="60" cy="80" r="17.5" fill="none" stroke="#222" style="opacity:0.046;stroke-width:5px;" /><circle cx="80" cy="80" r="17.5" fill="none" stroke="#222" style="opacity:0.080666666666667;stroke-width:5px;" /><circle cx="100" cy="80" r="17.5" fill="none" stroke="#222" style="opacity:0.046;stroke-width:5px;" /><circle cx="0" cy="100" r="17.5" fill="none" stroke="#ddd" style="opacity:0.072;stroke-width:5px;" /><circle cx="120" cy="100" r="17.5" fill="none" stroke="#ddd" style="opacity:0.072;stroke-width:5px;" /><circle cx="20" cy="100" r="17.5" fill="none" stroke="#222" style="opacity:0.11533333333333;stroke-width:5px;" /><circle cx="40" cy="100" r="17.5" fill="none" stroke="#ddd" style="opacity:0.14133333333333;stroke-width:5px;" /><circle cx="60" cy="100" r="17.5" fill="none" stroke="#222" style="opacity:0.15;stroke-width:5px;" /><circle cx="80" cy="100" r="17.5" fill="none" stroke="#ddd" style="opacity:0.124;stroke-width:5px;" /><circle cx="100" cy="100" r="17.5" fill="none" stroke="#222" style="opacity:0.080666666666667;stroke-width:5px;" /></svg>