<?xml version="1.0"?><svg xmlns="http://www.w3.org/2000/svg" width="483" height="483"><rect x="0" y="0" width="100%" height="100%" fill="rgb(129, 236, 236)" /><rect x="0" y="10" width="100%" height="10" opacity="0.063333333333333" fill="#222" /><rect x="0" y="31" width="100%" height="7" opacity="0.037333333333333" fill="#ddd" /><rect x="0" y="52" width="100%" height="16" opacity="0.11533333333333" fill="#222" /><rect x="0" y="85" width="100%" height="13" opacity="0.089333333333333" fill="#ddd" /><rect x="0" y="114" width="100%" height="14" opacity="0.098" fill="#222" /><rect x="0" y="141" width="100%" height="17" opacity="0.124" fill="#ddd" /><rect x="0" y="175" width="100%" height="10" opacity="0.063333333333333" fill="#222" /><rect x="0" y="197" width="100%" height="15" opacity="0.10666666666667" fill="#ddd" /><rect x="0" y="229" width="100%" height="11" opacity="0.072" fill="#ddd" /><rect x="0" y="258" width="100%" height="14" opacity="0.098" fill="#222" /><rect x="0" y="284" width="100%" height="14" opacity="0.098" fill="#222" /><rect x="0" y="312" width="100%" height="14" opacity="0.098" fill="#222" /><rect x="0" y="345" width="100%" height="15" opacity="0.10666666666667" fill="#ddd" /><rect x="0" y="366" width="100%" height="15" opacity="0.10666666666667" fill="#ddd" /><rect x="0" y="388" width="100%" height="11" opacity="0.072" fill="#ddd" /><rect x="0" y="417" width="100%" height="11" opacity="0.072" fill="#ddd" /><rect x="0" y="434" width="100%" height="7" opacity="0.037333333333333" fill="#ddd" /><rect x="0" y="447" width="100%" height="16" opacity="0.11533333333333" fill="#222" /><rect x="0" y="471" width="100%" height="12" opacity="0.080666666666667" fill="#222" /><rect x="10" y="0" width="10" height="100%" opacity="0.063333333333333" fill="#222" /><rect x="31" y="0" width="7" height="100%" opacity="0.037333333333333" fill="#ddd" /><rect x="52" y="0" width="16" height="100%" opacity="0.11533333333333" fill="#222" /><rect x="85" y="0" width="13" height="100%" opacity="0.089333333333333" fill="#ddd" /><rect x="114" y="0" width="14" height="100%" opacity="0.098" fill="#222" /><rect x="141" y="0" width="17" height="100%" opacity="0.124" fill="#ddd" /><rect x="175" y="0" width="10" height="100%" opacity="0.063333333333333" fill="#222" /><rect x="197" y="0" width="15" height="100%" opacity="0.10666666666667" fill="#ddd" /><rect x="229" y="0" width="11" height="100%" opacity="0.072" fill="#ddd" /><rect x="258" y="0" width="14" height="100%" opacity="0.098" fill="#222" /><rect x="284" y="0" width="14" height="100%" opacity="0.098" fill="#222" /><rect x="312" y="0" width="14" height="100%" opacity="0.098" fill="#222" /><rect x="345" y="0" width="15" height="100%" opacity="0.10666666666667" fill="#ddd" /><rect x="366" y="0" width="15" height="100%" opacity="0.10666666666667" fill="#ddd" /><rect x="388" y="0" width="11" height="100%" opacity="0.072" fill="#ddd" /><rect x="417" y="0" width="11" height="100%" opacity="0.072" fill="#ddd" /><rect x="434" y="0" width="7" height="100%" opacity="0.037333333333333" fill="#ddd" /><rect x="447" y="0" width="16" height="100%" opacity="0.11533333333333" fill="#222" /><rect x="471" y="0" width="12" height="100%" opacity="0.080666666666667" fill="#222" /></svg>